<svg width="64" height="63" viewBox="0 0 64 63" fill="none" xmlns="http://www.w3.org/2000/svg">
<g clip-path="url(#clip0_92_60)">
<path d="M9.96589 53.7655C6.98094 50.8826 4.60004 47.434 2.96211 43.621C1.32419 39.8081 0.462045 35.7071 0.425985 31.5574C0.389925 27.4077 1.18067 23.2923 2.75209 19.4515C4.3235 15.6106 6.64411 12.1212 9.57851 9.18679C12.5129 6.25239 16.0023 3.93178 19.8432 2.36036C23.684 0.788948 27.7994 -0.00179884 31.9491 0.0342611C36.0988 0.070321 40.1998 0.932466 44.0127 2.57039C47.8257 4.20831 51.2743 6.58921 54.1572 9.57417C59.8502 15.4685 63.0003 23.363 62.9291 31.5574C62.8579 39.7517 59.571 47.5903 53.7765 53.3848C47.982 59.1793 40.1435 62.4661 31.9491 62.5373C23.7547 62.6085 15.8602 59.4585 9.96589 53.7655ZM22.6857 19.1688V44.1709H28.9363V19.1688H22.6857ZM35.1868 19.1688V44.1709H41.4374V19.1688H35.1868Z" fill="#E48DAB"/>
</g>
<defs>
<clipPath id="clip0_92_60">
<rect width="62.5054" height="62.5054" fill="white" transform="translate(0.808838 0.417114)"/>
</clipPath>
</defs>
</svg>
