<svg width="54" height="54" viewBox="0 0 54 54" fill="none" xmlns="http://www.w3.org/2000/svg">
<path d="M27.0066 5.09521C24.0995 5.09521 21.2208 5.66781 18.535 6.78032C15.8492 7.89283 13.4088 9.52345 11.3531 11.5791C7.20158 15.7307 4.86926 21.3614 4.86926 27.2326C4.86926 33.1037 7.20158 38.7345 11.3531 42.886C13.4088 44.9417 15.8492 46.5723 18.535 47.6848C21.2208 48.7973 24.0995 49.3699 27.0066 49.3699C32.8778 49.3699 38.5085 47.0376 42.6601 42.886C46.8116 38.7345 49.144 33.1037 49.144 27.2326C49.144 24.3254 48.5714 21.4468 47.4588 18.761C46.3463 16.0751 44.7157 13.6347 42.6601 11.5791C40.6044 9.52345 38.164 7.89283 35.4782 6.78032C32.7924 5.66781 29.9137 5.09521 27.0066 5.09521ZM18.1517 18.3776L29.2203 27.2326L18.1517 36.0875M31.4341 18.3776H35.8615V36.0875H31.4341" fill="white"/>
</svg>
