<svg width="54" height="54" viewBox="0 0 54 54" fill="none" xmlns="http://www.w3.org/2000/svg">
<path d="M27.1166 5.09521C30.0237 5.09521 32.9023 5.66781 35.5882 6.78032C38.274 7.89283 40.7144 9.52345 42.77 11.5791C46.9216 15.7307 49.2539 21.3614 49.2539 27.2326C49.2539 33.1037 46.9216 38.7345 42.77 42.886C40.7144 44.9417 38.274 46.5723 35.5882 47.6848C32.9023 48.7973 30.0237 49.3699 27.1166 49.3699C21.2454 49.3699 15.6147 47.0376 11.4631 42.886C7.31154 38.7345 4.97922 33.1037 4.97922 27.2326C4.97922 24.3254 5.55182 21.4468 6.66432 18.761C7.77683 16.0751 9.40745 13.6347 11.4631 11.5791C13.5187 9.52345 15.9591 7.89283 18.645 6.78032C21.3308 5.66781 24.2094 5.09521 27.1166 5.09521ZM35.9715 18.3776L24.9028 27.2326L35.9715 36.0875M22.6891 18.3776H18.2616V36.0875H22.6891" fill="white"/>
</svg>
