<svg width="63" height="63" viewBox="0 0 63 63" fill="none" xmlns="http://www.w3.org/2000/svg">
<path d="M9.15705 53.3484C6.1721 50.4654 3.7912 47.0169 2.15328 43.2039C0.515351 39.3909 -0.346793 35.29 -0.382853 31.1403C-0.418913 26.9905 0.371834 22.8752 1.94325 19.0343C3.51466 15.1935 5.83527 11.7041 8.76968 8.76968C11.7041 5.83527 15.1935 3.51466 19.0343 1.94325C22.8752 0.371834 26.9905 -0.418913 31.1403 -0.382853C35.29 -0.346793 39.3909 0.515351 43.2039 2.15328C47.0169 3.7912 50.4654 6.1721 53.3484 9.15705C59.0413 15.0514 62.1914 22.9459 62.1202 31.1403C62.049 39.3346 58.7622 47.1732 52.9677 52.9677C47.1732 58.7622 39.3346 62.049 31.1403 62.1202C22.9459 62.1914 15.0514 59.0413 9.15705 53.3484Z" fill="#E48DAB"/>
<path d="M41.0401 31.0729L26.0054 40.5444L26.0749 21.492L41.0401 31.0729Z" fill="#D9D9D9" fill-opacity="0.46"/>
</svg>
