<svg width="66" height="63" viewBox="0 0 66 63" fill="none" xmlns="http://www.w3.org/2000/svg">
<path d="M63 31.2625C63 48.3833 49.1208 62.2625 32 62.2625C14.8792 62.2625 1 48.3833 1 31.2625C1 14.1417 14.8792 0.262482 32 0.262482C49.1208 0.262482 63 14.1417 63 31.2625Z" fill="#6F497D" fill-opacity="0.87"/>
<path d="M10.839 33.636C10.7523 33.636 10.67 33.623 10.592 33.597C10.514 33.5623 10.397 33.5017 10.241 33.415C9.695 33.0943 8.98 32.7823 8.096 32.479C7.706 32.349 7.24233 32.2147 6.705 32.076C6.17633 31.9287 5.76033 31.8203 5.457 31.751L5.548 33.428C5.55667 33.662 5.587 33.857 5.639 34.013C5.691 34.1777 5.717 34.2817 5.717 34.325C5.717 34.4203 5.66933 34.4983 5.574 34.559C5.47867 34.6283 5.379 34.663 5.275 34.663C5.145 34.663 5.06267 34.572 5.028 34.39C5.028 34.3727 5.015 34.2947 4.989 34.156C4.97167 34.0173 4.963 33.8223 4.963 33.571C4.963 33.4063 4.94567 33.0553 4.911 32.518C4.90233 32.336 4.89367 32.1627 4.885 31.998C4.87633 31.8247 4.872 31.673 4.872 31.543C4.846 31.517 4.81133 31.4867 4.768 31.452C4.73333 31.4173 4.703 31.3697 4.677 31.309C4.651 31.231 4.62933 31.1487 4.612 31.062C4.59467 30.9753 4.586 30.9103 4.586 30.867C4.586 30.8063 4.60333 30.7587 4.638 30.724C4.67267 30.6893 4.72467 30.6503 4.794 30.607C4.742 28.4403 4.716 27.201 4.716 26.889C4.716 26.6117 4.72033 26.356 4.729 26.122C4.73767 25.888 4.742 25.732 4.742 25.654C4.69 25.6627 4.534 25.6843 4.274 25.719C4.014 25.7537 3.806 25.7883 3.65 25.823C3.09533 25.953 2.675 26.0787 2.389 26.2C2.09433 26.3127 1.81267 26.4427 1.544 26.59C1.466 26.642 1.39233 26.6853 1.323 26.72C1.245 26.746 1.17133 26.759 1.102 26.759C1.03267 26.759 0.972 26.7287 0.92 26.668C0.868 26.5987 0.842 26.5163 0.842 26.421C0.842 26.2563 1.11933 26.0657 1.674 25.849C2.22867 25.6323 2.831 25.4547 3.481 25.316C3.845 25.238 4.30867 25.173 4.872 25.121C5.43533 25.0603 5.95967 25.03 6.445 25.03C7.277 25.03 7.98333 25.121 8.564 25.303C9.15333 25.485 9.59533 25.7407 9.89 26.07C10.1933 26.3993 10.345 26.7763 10.345 27.201C10.345 27.747 10.189 28.215 9.877 28.605C9.565 28.995 9.149 29.333 8.629 29.619C8.11767 29.905 7.42 30.23 6.536 30.594C6.31067 30.698 6.08533 30.7933 5.86 30.88C5.64333 30.9667 5.496 31.0273 5.418 31.062C5.418 31.114 5.42233 31.153 5.431 31.179C6.367 31.387 7.29 31.6253 8.2 31.894L8.473 31.972C9.41767 32.258 10.1153 32.4833 10.566 32.648C11.0167 32.804 11.242 32.934 11.242 33.038C11.242 33.142 11.1987 33.2677 11.112 33.415C11.0253 33.5623 10.9343 33.636 10.839 33.636ZM6.341 25.589C5.80367 25.589 5.46567 25.5977 5.327 25.615C5.31833 25.6757 5.30533 25.8187 5.288 26.044C5.27933 26.2693 5.275 26.4947 5.275 26.72L5.327 28.8L5.379 30.412C5.457 30.4033 5.60867 30.3643 5.834 30.295C6.068 30.217 6.263 30.1433 6.419 30.074C7.51967 29.632 8.33867 29.19 8.876 28.748C9.422 28.2973 9.695 27.7817 9.695 27.201C9.695 26.915 9.56933 26.6507 9.318 26.408C9.06667 26.1653 8.68533 25.9703 8.174 25.823C7.67133 25.667 7.06033 25.589 6.341 25.589ZM16.793 30.88C16.793 31.036 16.676 31.3783 16.442 31.907C16.2167 32.4357 15.87 32.9253 15.402 33.376C14.9427 33.8267 14.375 34.052 13.699 34.052C13.1443 34.052 12.6807 33.8787 12.308 33.532C11.9353 33.1853 11.749 32.6523 11.749 31.933C11.749 31.257 11.905 30.5897 12.217 29.931C12.529 29.2637 12.9363 28.722 13.439 28.306C13.9417 27.8813 14.4617 27.669 14.999 27.669C15.3197 27.669 15.5883 27.7427 15.805 27.89C16.0303 28.0287 16.143 28.2323 16.143 28.501C16.143 28.8043 15.9697 29.099 15.623 29.385C15.285 29.671 14.843 29.9223 14.297 30.139C13.751 30.3557 13.1877 30.5117 12.607 30.607C12.503 31.0057 12.451 31.3957 12.451 31.777C12.451 32.2797 12.568 32.6697 12.802 32.947C13.0447 33.2243 13.387 33.363 13.829 33.363C14.4963 33.363 15.038 33.1247 15.454 32.648C15.87 32.1713 16.2167 31.634 16.494 31.036C16.5113 31.0013 16.5417 30.9363 16.585 30.841C16.6283 30.737 16.6673 30.685 16.702 30.685C16.7627 30.685 16.793 30.75 16.793 30.88ZM14.843 28.202C14.5137 28.202 14.1973 28.3103 13.894 28.527C13.5907 28.7437 13.335 29.0037 13.127 29.307C12.9277 29.6103 12.7977 29.879 12.737 30.113C13.1357 30.0697 13.556 29.957 13.998 29.775C14.44 29.593 14.8083 29.3937 15.103 29.177C15.4063 28.9603 15.558 28.7827 15.558 28.644C15.558 28.5053 15.4843 28.397 15.337 28.319C15.1983 28.241 15.0337 28.202 14.843 28.202ZM22.7063 29.138C21.9089 29.2767 21.4626 29.3547 21.3673 29.372L20.5223 29.515C20.5223 29.9657 20.5266 30.438 20.5353 30.932C20.5526 31.426 20.5743 31.8593 20.6003 32.232C20.6349 32.7347 20.6956 33.1203 20.7823 33.389C20.8689 33.6577 20.9166 33.8093 20.9253 33.844C20.9253 33.9307 20.8689 34.0087 20.7563 34.078C20.6523 34.156 20.5526 34.195 20.4573 34.195C20.4053 34.195 20.3619 34.1777 20.3273 34.143C20.2926 34.117 20.2623 34.0693 20.2363 34C20.1843 33.8787 20.1323 33.6533 20.0803 33.324C20.0369 32.9947 20.0023 32.6307 19.9763 32.232C19.9503 31.8767 19.9286 31.465 19.9113 30.997C19.9026 30.5203 19.8983 30.061 19.8983 29.619C19.4129 29.697 18.9146 29.7923 18.4033 29.905C17.9439 30.0003 17.6709 30.048 17.5843 30.048C17.4803 30.048 17.3806 30.0177 17.2853 29.957C17.1986 29.8963 17.1553 29.814 17.1553 29.71C17.1553 29.5973 17.1943 29.5237 17.2723 29.489C17.3503 29.4543 17.4803 29.437 17.6623 29.437C17.7923 29.437 17.9829 29.4153 18.2343 29.372C18.4856 29.32 18.6459 29.2853 18.7153 29.268C19.2959 29.1553 19.6903 29.0817 19.8983 29.047C19.8983 28.865 19.8896 28.6267 19.8723 28.332C19.8549 27.9333 19.8463 27.63 19.8463 27.422C19.8463 27.084 19.8549 26.824 19.8723 26.642C19.8983 26.4513 19.9416 26.2823 20.0023 26.135C20.0716 25.9617 20.2016 25.875 20.3923 25.875C20.4703 25.875 20.5223 25.888 20.5483 25.914C20.5743 25.94 20.5873 25.9877 20.5873 26.057C20.5873 26.109 20.5656 26.2607 20.5223 26.512C20.4789 26.7633 20.4573 27.097 20.4573 27.513C20.4573 27.8337 20.4659 28.1933 20.4833 28.592L20.4963 28.943C20.8863 28.8823 21.6576 28.722 22.8103 28.462C22.8796 28.4447 22.9359 28.384 22.9793 28.28C23.0313 28.176 23.0833 28.124 23.1353 28.124C23.2306 28.124 23.3259 28.1803 23.4213 28.293C23.5253 28.397 23.5773 28.5053 23.5773 28.618C23.5773 28.7653 23.5123 28.878 23.3823 28.956C23.2609 29.034 23.0356 29.0947 22.7063 29.138ZM28.2591 28.943C28.1984 28.943 28.1378 28.917 28.0771 28.865C28.0251 28.813 27.9644 28.7393 27.8951 28.644C27.8344 28.5573 27.7521 28.4837 27.6481 28.423C27.5528 28.3623 27.4531 28.332 27.3491 28.332C27.0978 28.332 26.7598 28.6657 26.3351 29.333C25.9104 29.9917 25.4944 30.8237 25.0871 31.829C25.0958 32.0283 25.1088 32.2797 25.1261 32.583C25.1521 32.8863 25.1694 33.1117 25.1781 33.259L25.2171 33.779C25.2171 33.9003 25.1911 34.0043 25.1391 34.091C25.0871 34.1863 24.9918 34.234 24.8531 34.234C24.7058 34.234 24.6104 34.039 24.5671 33.649C24.5238 33.2503 24.4978 32.674 24.4891 31.92C24.4804 31.7293 24.4718 31.4563 24.4631 31.101C24.4631 30.7457 24.4544 30.321 24.4371 29.827C24.4111 29.0817 24.3981 28.5487 24.3981 28.228C24.3981 28.0287 24.5194 27.929 24.7621 27.929C24.9094 27.929 24.9961 27.994 25.0221 28.124C25.0568 28.2453 25.0741 28.4837 25.0741 28.839V30.906C25.3341 30.2387 25.6158 29.6623 25.9191 29.177C26.2224 28.6917 26.5171 28.3233 26.8031 28.072C27.0978 27.812 27.3578 27.682 27.5831 27.682C27.7738 27.682 27.9558 27.7253 28.1291 27.812C28.3024 27.8987 28.4411 28.0113 28.5451 28.15C28.6491 28.28 28.7011 28.4057 28.7011 28.527C28.7011 28.605 28.6448 28.696 28.5321 28.8C28.4281 28.8953 28.3371 28.943 28.2591 28.943ZM31.1199 34.091C30.5392 34.091 30.1102 33.9307 29.8329 33.61C29.5556 33.2893 29.4169 32.8907 29.4169 32.414C29.4169 31.998 29.4906 31.4823 29.6379 30.867C29.7939 30.2517 30.0106 29.7013 30.2879 29.216C30.3052 29.1813 30.3746 29.0557 30.4959 28.839C30.6259 28.6137 30.7689 28.4447 30.9249 28.332C31.0809 28.2107 31.2456 28.15 31.4189 28.15C31.4969 28.15 31.5662 28.1717 31.6269 28.215C31.6962 28.2497 31.7309 28.2973 31.7309 28.358C31.7309 28.3753 31.7049 28.4187 31.6529 28.488C31.6096 28.5487 31.5749 28.5963 31.5489 28.631C31.2542 28.9863 31.0159 29.3373 30.8339 29.684C30.5912 30.126 30.4006 30.5637 30.2619 30.997C30.1319 31.4303 30.0669 31.9027 30.0669 32.414C30.0669 33.0987 30.4829 33.441 31.3149 33.441C31.7049 33.441 32.0646 33.3283 32.3939 33.103C32.7319 32.8777 33.0006 32.6047 33.1999 32.284C33.3992 31.9547 33.4989 31.6557 33.4989 31.387C33.4989 31.0837 33.3992 30.8193 33.1999 30.594C33.0006 30.3687 32.7276 30.1303 32.3809 29.879C32.1556 29.7143 31.9909 29.58 31.8869 29.476C31.7829 29.372 31.7309 29.2853 31.7309 29.216C31.7309 29.112 31.8046 29.0297 31.9519 28.969C32.0992 28.8997 32.2726 28.865 32.4719 28.865C32.5846 28.865 32.6582 28.8737 32.6929 28.891C32.7276 28.8997 32.7449 28.9213 32.7449 28.956C32.7449 28.9733 32.7276 29.0037 32.6929 29.047C32.6669 29.0817 32.6539 29.112 32.6539 29.138C32.6539 29.164 32.7406 29.2507 32.9139 29.398C33.2606 29.684 33.5509 29.9743 33.7849 30.269C34.0189 30.5637 34.1359 30.9103 34.1359 31.309C34.1359 31.647 34.0102 32.037 33.7589 32.479C33.5076 32.921 33.1522 33.3023 32.6929 33.623C32.2336 33.935 31.7092 34.091 31.1199 34.091ZM38.3185 32.349C37.8678 32.895 37.4605 33.3153 37.0965 33.61C36.7411 33.9047 36.3685 34.052 35.9785 34.052C35.6491 34.052 35.3761 33.909 35.1595 33.623C34.9515 33.337 34.8475 33.0077 34.8475 32.635C34.8475 32.0803 34.9948 31.3783 35.2895 30.529C35.5841 29.6797 35.9568 28.943 36.4075 28.319C36.8581 27.695 37.3088 27.383 37.7595 27.383C37.9501 27.383 38.1148 27.4523 38.2535 27.591C38.3315 27.669 38.4051 27.773 38.4745 27.903C38.5438 28.033 38.5785 28.15 38.5785 28.254C38.5785 28.4013 38.5568 28.5747 38.5135 28.774C38.4788 28.9647 38.4398 29.06 38.3965 29.06C38.3098 29.06 38.2535 29.0123 38.2275 28.917C38.2015 28.8217 38.1841 28.7003 38.1755 28.553C38.1495 28.3277 38.1235 28.1803 38.0975 28.111C38.0715 28.033 38.0325 27.994 37.9805 27.994C37.5731 27.994 37.1788 28.28 36.7975 28.852C36.4161 29.4153 36.1041 30.074 35.8615 30.828C35.6188 31.5733 35.4975 32.1497 35.4975 32.557C35.4975 33.129 35.6881 33.415 36.0695 33.415C36.3468 33.415 36.5981 33.3457 36.8235 33.207C37.0575 33.0683 37.3001 32.8733 37.5515 32.622C38.0195 32.1453 38.3835 31.7337 38.6435 31.387C38.6608 31.361 38.7085 31.296 38.7865 31.192C38.8731 31.0793 38.9338 31.023 38.9685 31.023C39.0725 31.023 39.1245 31.062 39.1245 31.14C39.1245 31.192 39.0335 31.3523 38.8515 31.621C38.6781 31.8897 38.5005 32.1323 38.3185 32.349ZM45.0147 30.88C45.0147 31.036 44.8977 31.3783 44.6637 31.907C44.4383 32.4357 44.0917 32.9253 43.6237 33.376C43.1643 33.8267 42.5967 34.052 41.9207 34.052C41.366 34.052 40.9023 33.8787 40.5297 33.532C40.157 33.1853 39.9707 32.6523 39.9707 31.933C39.9707 31.257 40.1267 30.5897 40.4387 29.931C40.7507 29.2637 41.158 28.722 41.6607 28.306C42.1633 27.8813 42.6833 27.669 43.2207 27.669C43.5413 27.669 43.81 27.7427 44.0267 27.89C44.252 28.0287 44.3647 28.2323 44.3647 28.501C44.3647 28.8043 44.1913 29.099 43.8447 29.385C43.5067 29.671 43.0647 29.9223 42.5187 30.139C41.9727 30.3557 41.4093 30.5117 40.8287 30.607C40.7247 31.0057 40.6727 31.3957 40.6727 31.777C40.6727 32.2797 40.7897 32.6697 41.0237 32.947C41.2663 33.2243 41.6087 33.363 42.0507 33.363C42.718 33.363 43.2597 33.1247 43.6757 32.648C44.0917 32.1713 44.4383 31.634 44.7157 31.036C44.733 31.0013 44.7633 30.9363 44.8067 30.841C44.85 30.737 44.889 30.685 44.9237 30.685C44.9843 30.685 45.0147 30.75 45.0147 30.88ZM43.0647 28.202C42.7353 28.202 42.419 28.3103 42.1157 28.527C41.8123 28.7437 41.5567 29.0037 41.3487 29.307C41.1493 29.6103 41.0193 29.879 40.9587 30.113C41.3573 30.0697 41.7777 29.957 42.2197 29.775C42.6617 29.593 43.03 29.3937 43.3247 29.177C43.628 28.9603 43.7797 28.7827 43.7797 28.644C43.7797 28.5053 43.706 28.397 43.5587 28.319C43.42 28.241 43.2553 28.202 43.0647 28.202ZM50.694 25.108C50.694 25.2813 50.6853 25.6237 50.668 26.135C50.6506 26.6377 50.642 27.1447 50.642 27.656C50.642 28.644 50.6636 29.6537 50.707 30.685C50.7503 31.7077 50.785 32.3793 50.811 32.7C50.811 32.752 50.8153 32.8083 50.824 32.869C50.8326 32.9297 50.8413 32.986 50.85 33.038C50.8846 33.2807 50.902 33.428 50.902 33.48C50.902 33.5667 50.837 33.649 50.707 33.727C50.5856 33.805 50.4903 33.844 50.421 33.844C50.3256 33.844 50.2606 33.8093 50.226 33.74C50.2 33.662 50.187 33.558 50.187 33.428C50.187 32.9513 50.2 32.453 50.226 31.933L50.239 31.205C50.239 30.9623 50.2346 30.646 50.226 30.256C50.2173 29.8573 50.2043 29.5237 50.187 29.255C49.745 30.6763 49.2423 31.855 48.679 32.791C48.1243 33.7183 47.522 34.182 46.872 34.182C46.5773 34.182 46.326 34.0433 46.118 33.766C45.9186 33.4887 45.819 33.09 45.819 32.57C45.819 31.8853 46.0486 31.14 46.508 30.334C46.976 29.528 47.5046 28.8347 48.094 28.254C48.692 27.6733 49.134 27.383 49.42 27.383C49.6973 27.383 49.836 27.474 49.836 27.656C49.836 27.7773 49.7926 27.9203 49.706 28.085C49.628 28.241 49.537 28.384 49.433 28.514C49.3376 28.644 49.2813 28.709 49.264 28.709C49.2466 28.709 49.225 28.7047 49.199 28.696C49.1816 28.6787 49.173 28.6613 49.173 28.644C49.173 28.6007 49.1946 28.527 49.238 28.423C49.2813 28.319 49.303 28.2497 49.303 28.215C49.303 28.1717 49.2986 28.1413 49.29 28.124C49.2813 28.1067 49.2553 28.098 49.212 28.098C49.03 28.098 48.7006 28.3493 48.224 28.852C47.756 29.346 47.3356 29.9353 46.963 30.62C46.5903 31.3047 46.404 31.9417 46.404 32.531C46.404 32.739 46.4473 32.934 46.534 33.116C46.6206 33.298 46.7636 33.389 46.963 33.389C47.5956 33.389 48.1806 32.856 48.718 31.79C49.264 30.7153 49.7363 29.4977 50.135 28.137L50.109 27.045C50.083 26.083 50.07 25.5717 50.07 25.511C50.07 24.991 50.0916 24.6183 50.135 24.393C50.1523 24.3063 50.1696 24.2457 50.187 24.211C50.213 24.1763 50.2606 24.159 50.33 24.159C50.4166 24.159 50.5033 24.1893 50.59 24.25C50.6766 24.302 50.72 24.3757 50.72 24.471L50.694 25.108ZM57.2149 30.88C57.2149 31.036 57.0979 31.3783 56.8639 31.907C56.6385 32.4357 56.2919 32.9253 55.8239 33.376C55.3645 33.8267 54.7969 34.052 54.1209 34.052C53.5662 34.052 53.1025 33.8787 52.7299 33.532C52.3572 33.1853 52.1709 32.6523 52.1709 31.933C52.1709 31.257 52.3269 30.5897 52.6389 29.931C52.9509 29.2637 53.3582 28.722 53.8609 28.306C54.3635 27.8813 54.8835 27.669 55.4209 27.669C55.7415 27.669 56.0102 27.7427 56.2269 27.89C56.4522 28.0287 56.5649 28.2323 56.5649 28.501C56.5649 28.8043 56.3915 29.099 56.0449 29.385C55.7069 29.671 55.2649 29.9223 54.7189 30.139C54.1729 30.3557 53.6095 30.5117 53.0289 30.607C52.9249 31.0057 52.8729 31.3957 52.8729 31.777C52.8729 32.2797 52.9899 32.6697 53.2239 32.947C53.4665 33.2243 53.8089 33.363 54.2509 33.363C54.9182 33.363 55.4599 33.1247 55.8759 32.648C56.2919 32.1713 56.6385 31.634 56.9159 31.036C56.9332 31.0013 56.9635 30.9363 57.0069 30.841C57.0502 30.737 57.0892 30.685 57.1239 30.685C57.1845 30.685 57.2149 30.75 57.2149 30.88ZM55.2649 28.202C54.9355 28.202 54.6192 28.3103 54.3159 28.527C54.0125 28.7437 53.7569 29.0037 53.5489 29.307C53.3495 29.6103 53.2195 29.879 53.1589 30.113C53.5575 30.0697 53.9779 29.957 54.4199 29.775C54.8619 29.593 55.2302 29.3937 55.5249 29.177C55.8282 28.9603 55.9799 28.7827 55.9799 28.644C55.9799 28.5053 55.9062 28.397 55.7589 28.319C55.6202 28.241 55.4555 28.202 55.2649 28.202ZM62.2571 28.943C62.1965 28.943 62.1358 28.917 62.0751 28.865C62.0231 28.813 61.9625 28.7393 61.8931 28.644C61.8325 28.5573 61.7501 28.4837 61.6461 28.423C61.5508 28.3623 61.4511 28.332 61.3471 28.332C61.0958 28.332 60.7578 28.6657 60.3331 29.333C59.9085 29.9917 59.4925 30.8237 59.0851 31.829C59.0938 32.0283 59.1068 32.2797 59.1241 32.583C59.1501 32.8863 59.1675 33.1117 59.1761 33.259L59.2151 33.779C59.2151 33.9003 59.1891 34.0043 59.1371 34.091C59.0851 34.1863 58.9898 34.234 58.8511 34.234C58.7038 34.234 58.6085 34.039 58.5651 33.649C58.5218 33.2503 58.4958 32.674 58.4871 31.92C58.4785 31.7293 58.4698 31.4563 58.4611 31.101C58.4611 30.7457 58.4525 30.321 58.4351 29.827C58.4091 29.0817 58.3961 28.5487 58.3961 28.228C58.3961 28.0287 58.5175 27.929 58.7601 27.929C58.9075 27.929 58.9941 27.994 59.0201 28.124C59.0548 28.2453 59.0721 28.4837 59.0721 28.839V30.906C59.3321 30.2387 59.6138 29.6623 59.9171 29.177C60.2205 28.6917 60.5151 28.3233 60.8011 28.072C61.0958 27.812 61.3558 27.682 61.5811 27.682C61.7718 27.682 61.9538 27.7253 62.1271 27.812C62.3005 27.8987 62.4391 28.0113 62.5431 28.15C62.6471 28.28 62.6991 28.4057 62.6991 28.527C62.6991 28.605 62.6428 28.696 62.5301 28.8C62.4261 28.8953 62.3351 28.943 62.2571 28.943Z" fill="white"/>
</svg>
