<svg width="81" height="63" viewBox="0 0 81 63" fill="none" xmlns="http://www.w3.org/2000/svg">
<path d="M62 31.2625C62 48.3833 48.1208 62.2625 31 62.2625C13.8792 62.2625 0 48.3833 0 31.2625C0 14.1417 13.8792 0.262482 31 0.262482C48.1208 0.262482 62 14.1417 62 31.2625Z" fill="#6F497D" fill-opacity="0.87"/>
<path d="M17.472 29.074C17.2033 29.1953 16.9303 29.308 16.653 29.412C16.3757 29.516 16.1937 29.581 16.107 29.607C16.1503 30.6643 16.172 31.5657 16.172 32.311C16.172 32.5537 16.198 32.753 16.25 32.909C16.3107 33.0563 16.341 33.1517 16.341 33.195C16.341 33.2903 16.2933 33.3683 16.198 33.429C16.1027 33.4983 16.003 33.533 15.899 33.533C15.769 33.533 15.6867 33.442 15.652 33.26C15.652 33.2427 15.639 33.1647 15.613 33.026C15.5957 32.8873 15.587 32.6923 15.587 32.441C15.587 31.765 15.561 30.6557 15.509 29.113C15.483 28.333 15.47 27.7783 15.47 27.449C15.47 27.1717 15.4743 26.916 15.483 26.682C15.4917 26.4393 15.496 26.2747 15.496 26.188C14.95 26.3353 14.4777 26.487 14.079 26.643C13.949 26.7037 13.767 26.8033 13.533 26.942C13.429 27.0027 13.325 27.059 13.221 27.111C13.1257 27.163 13.052 27.189 13 27.189C12.9307 27.189 12.87 27.1587 12.818 27.098C12.766 27.0373 12.74 26.9637 12.74 26.877C12.74 26.7643 12.9047 26.6257 13.234 26.461C13.5633 26.2877 13.962 26.123 14.43 25.967C14.9067 25.811 15.3443 25.694 15.743 25.616C16.211 25.5293 16.731 25.486 17.303 25.486C18.0917 25.486 18.7113 25.59 19.162 25.798C19.6127 25.9973 19.838 26.3007 19.838 26.708C19.838 27.2193 19.63 27.6613 19.214 28.034C18.798 28.398 18.2173 28.7447 17.472 29.074ZM17.303 26.006C16.9043 26.006 16.497 26.032 16.081 26.084C16.0723 26.1533 16.0593 26.3137 16.042 26.565C16.0333 26.8163 16.029 27.0547 16.029 27.28L16.042 28.229C16.0507 28.437 16.055 28.7013 16.055 29.022C16.237 29.0047 16.6227 28.8747 17.212 28.632C17.784 28.3807 18.265 28.1033 18.655 27.8C19.045 27.488 19.24 27.1587 19.24 26.812C19.24 26.5173 19.0537 26.3093 18.681 26.188C18.3083 26.0667 17.849 26.006 17.303 26.006ZM26.4636 32.519C26.4636 32.623 26.4203 32.7443 26.3336 32.883C26.247 33.013 26.1603 33.078 26.0736 33.078C25.9263 33.078 25.8136 32.987 25.7356 32.805C25.6576 32.623 25.6186 32.4107 25.6186 32.168C25.6186 31.96 25.6316 31.336 25.6576 30.296L25.6706 29.802C25.6706 29.6027 25.6186 29.4597 25.5146 29.373C25.1246 30.0317 24.7606 30.6037 24.4226 31.089C24.0846 31.5743 23.6556 32.0337 23.1356 32.467C22.6156 32.8917 22.0696 33.104 21.4976 33.104C21.2203 33.104 21.0036 33.0173 20.8476 32.844C20.7003 32.6707 20.6266 32.4453 20.6266 32.168C20.6266 31.8213 20.7826 31.349 21.0946 30.751C21.4066 30.1443 21.8053 29.5333 22.2906 28.918C22.776 28.294 23.2613 27.7827 23.7466 27.384C24.0673 27.124 24.323 26.9507 24.5136 26.864C24.7043 26.7687 24.8733 26.721 25.0206 26.721C25.1593 26.721 25.3023 26.7643 25.4496 26.851C25.597 26.9377 25.7226 27.059 25.8266 27.215C25.9306 27.371 25.9826 27.5487 25.9826 27.748C25.9826 28.0167 25.909 28.2723 25.7616 28.515L25.9826 28.45C26.078 28.45 26.1343 28.567 26.1516 28.801C26.1603 28.9397 26.169 29.2213 26.1776 29.646C26.195 30.0707 26.208 30.4217 26.2166 30.699C26.2253 30.985 26.234 31.2623 26.2426 31.531C26.2513 31.7997 26.26 32.012 26.2686 32.168C26.2773 32.2287 26.312 32.2937 26.3726 32.363C26.4333 32.4237 26.4636 32.4757 26.4636 32.519ZM25.3326 28.866C25.4366 28.606 25.4886 28.3243 25.4886 28.021C25.4886 27.839 25.4323 27.683 25.3196 27.553C25.2156 27.4143 25.0726 27.345 24.8906 27.345C24.674 27.345 24.3966 27.4923 24.0586 27.787C23.6686 28.1163 23.257 28.5583 22.8236 29.113C22.3903 29.659 22.0306 30.2007 21.7446 30.738C21.4586 31.2753 21.3156 31.7 21.3156 32.012C21.3156 32.272 21.437 32.402 21.6796 32.402C22.1476 32.402 22.5983 32.2287 23.0316 31.882C23.465 31.5353 23.8506 31.1237 24.1886 30.647C24.5353 30.1617 24.9166 29.568 25.3326 28.866ZM31.7845 27.943C31.7238 27.943 31.6632 27.917 31.6025 27.865C31.5505 27.813 31.4898 27.7393 31.4205 27.644C31.3598 27.5573 31.2775 27.4837 31.1735 27.423C31.0782 27.3623 30.9785 27.332 30.8745 27.332C30.6232 27.332 30.2852 27.6657 29.8605 28.333C29.4358 28.9917 29.0198 29.8237 28.6125 30.829C28.6212 31.0283 28.6342 31.2797 28.6515 31.583C28.6775 31.8863 28.6948 32.1117 28.7035 32.259L28.7425 32.779C28.7425 32.9003 28.7165 33.0043 28.6645 33.091C28.6125 33.1863 28.5172 33.234 28.3785 33.234C28.2312 33.234 28.1358 33.039 28.0925 32.649C28.0492 32.2503 28.0232 31.674 28.0145 30.92C28.0058 30.7293 27.9972 30.4563 27.9885 30.101C27.9885 29.7457 27.9798 29.321 27.9625 28.827C27.9365 28.0817 27.9235 27.5487 27.9235 27.228C27.9235 27.0287 28.0448 26.929 28.2875 26.929C28.4348 26.929 28.5215 26.994 28.5475 27.124C28.5822 27.2453 28.5995 27.4837 28.5995 27.839V29.906C28.8595 29.2387 29.1412 28.6623 29.4445 28.177C29.7478 27.6917 30.0425 27.3233 30.3285 27.072C30.6232 26.812 30.8832 26.682 31.1085 26.682C31.2992 26.682 31.4812 26.7253 31.6545 26.812C31.8278 26.8987 31.9665 27.0113 32.0705 27.15C32.1745 27.28 32.2265 27.4057 32.2265 27.527C32.2265 27.605 32.1702 27.696 32.0575 27.8C31.9535 27.8953 31.8625 27.943 31.7845 27.943ZM38.7273 32.519C38.7273 32.623 38.684 32.7443 38.5973 32.883C38.5106 33.013 38.424 33.078 38.3373 33.078C38.19 33.078 38.0773 32.987 37.9993 32.805C37.9213 32.623 37.8823 32.4107 37.8823 32.168C37.8823 31.96 37.8953 31.336 37.9213 30.296L37.9343 29.802C37.9343 29.6027 37.8823 29.4597 37.7783 29.373C37.3883 30.0317 37.0243 30.6037 36.6863 31.089C36.3483 31.5743 35.9193 32.0337 35.3993 32.467C34.8793 32.8917 34.3333 33.104 33.7613 33.104C33.484 33.104 33.2673 33.0173 33.1113 32.844C32.964 32.6707 32.8903 32.4453 32.8903 32.168C32.8903 31.8213 33.0463 31.349 33.3583 30.751C33.6703 30.1443 34.069 29.5333 34.5543 28.918C35.0396 28.294 35.525 27.7827 36.0103 27.384C36.331 27.124 36.5866 26.9507 36.7773 26.864C36.968 26.7687 37.137 26.721 37.2843 26.721C37.423 26.721 37.566 26.7643 37.7133 26.851C37.8606 26.9377 37.9863 27.059 38.0903 27.215C38.1943 27.371 38.2463 27.5487 38.2463 27.748C38.2463 28.0167 38.1726 28.2723 38.0253 28.515L38.2463 28.45C38.3416 28.45 38.398 28.567 38.4153 28.801C38.424 28.9397 38.4326 29.2213 38.4413 29.646C38.4586 30.0707 38.4716 30.4217 38.4803 30.699C38.489 30.985 38.4976 31.2623 38.5063 31.531C38.515 31.7997 38.5236 32.012 38.5323 32.168C38.541 32.2287 38.5756 32.2937 38.6363 32.363C38.697 32.4237 38.7273 32.4757 38.7273 32.519ZM37.5963 28.866C37.7003 28.606 37.7523 28.3243 37.7523 28.021C37.7523 27.839 37.696 27.683 37.5833 27.553C37.4793 27.4143 37.3363 27.345 37.1543 27.345C36.9376 27.345 36.6603 27.4923 36.3223 27.787C35.9323 28.1163 35.5206 28.5583 35.0873 29.113C34.654 29.659 34.2943 30.2007 34.0083 30.738C33.7223 31.2753 33.5793 31.7 33.5793 32.012C33.5793 32.272 33.7006 32.402 33.9433 32.402C34.4113 32.402 34.862 32.2287 35.2953 31.882C35.7286 31.5353 36.1143 31.1237 36.4523 30.647C36.799 30.1617 37.1803 29.568 37.5963 28.866ZM44.0482 27.943C43.9875 27.943 43.9268 27.917 43.8662 27.865C43.8142 27.813 43.7535 27.7393 43.6842 27.644C43.6235 27.5573 43.5412 27.4837 43.4372 27.423C43.3418 27.3623 43.2422 27.332 43.1382 27.332C42.8868 27.332 42.5488 27.6657 42.1242 28.333C41.6995 28.9917 41.2835 29.8237 40.8762 30.829C40.8848 31.0283 40.8978 31.2797 40.9152 31.583C40.9412 31.8863 40.9585 32.1117 40.9672 32.259L41.0062 32.779C41.0062 32.9003 40.9802 33.0043 40.9282 33.091C40.8762 33.1863 40.7808 33.234 40.6422 33.234C40.4948 33.234 40.3995 33.039 40.3562 32.649C40.3128 32.2503 40.2868 31.674 40.2782 30.92C40.2695 30.7293 40.2608 30.4563 40.2522 30.101C40.2522 29.7457 40.2435 29.321 40.2262 28.827C40.2002 28.0817 40.1872 27.5487 40.1872 27.228C40.1872 27.0287 40.3085 26.929 40.5512 26.929C40.6985 26.929 40.7852 26.994 40.8112 27.124C40.8458 27.2453 40.8632 27.4837 40.8632 27.839V29.906C41.1232 29.2387 41.4048 28.6623 41.7082 28.177C42.0115 27.6917 42.3062 27.3233 42.5922 27.072C42.8868 26.812 43.1468 26.682 43.3722 26.682C43.5628 26.682 43.7448 26.7253 43.9182 26.812C44.0915 26.8987 44.2302 27.0113 44.3342 27.15C44.4382 27.28 44.4902 27.4057 44.4902 27.527C44.4902 27.605 44.4338 27.696 44.3212 27.8C44.2172 27.8953 44.1262 27.943 44.0482 27.943Z" fill="white"/>
</svg>
