<svg width="78" height="63" viewBox="0 0 78 63" fill="none" xmlns="http://www.w3.org/2000/svg">
<circle cx="31" cy="31.2625" r="31" fill="#6F497D" fill-opacity="0.87"/>
<path d="M17.449 29.5575C17.3883 29.6095 17.2627 29.6571 17.072 29.7005C16.8813 29.7351 16.7513 29.7568 16.682 29.7655C16.7513 30.0948 16.786 30.2551 16.786 30.2465C16.8467 30.4631 16.9117 30.7621 16.981 31.1435C17.137 32.0188 17.2973 32.7641 17.462 33.3795C17.5053 33.5788 17.527 33.6958 17.527 33.7305C17.527 33.8171 17.4923 33.8908 17.423 33.9515C17.3537 34.0121 17.2713 34.0425 17.176 34.0425C17.0893 34.0425 17.0113 33.9948 16.942 33.8995C16.8727 33.8128 16.825 33.7348 16.799 33.6655C16.721 33.3708 16.6473 33.0415 16.578 32.6775C16.5173 32.3135 16.4437 31.8758 16.357 31.3645C16.3223 31.1391 16.266 30.8618 16.188 30.5325C16.11 30.1945 16.058 29.9735 16.032 29.8695C15.5207 29.9388 14.641 30.0775 13.393 30.2855L12.639 30.4155L12.366 31.1825L12.002 32.2225C11.6987 33.1671 11.482 33.8951 11.352 34.4065C11.326 34.5278 11.274 34.6275 11.196 34.7055C11.118 34.7921 11.0227 34.8355 10.91 34.8355C10.8147 34.8355 10.7323 34.8095 10.663 34.7575C10.6023 34.7055 10.572 34.6318 10.572 34.5365C10.572 34.4411 10.624 34.2375 10.728 33.9255C10.832 33.6221 10.8927 33.4401 10.91 33.3795C10.9447 33.2928 11.014 33.0935 11.118 32.7815C11.2307 32.4435 11.3737 32.0361 11.547 31.5595C11.729 31.0741 11.8503 30.7535 11.911 30.5975C11.469 30.7015 11.1397 30.7838 10.923 30.8445C10.5937 30.9311 10.39 30.9745 10.312 30.9745C10.2167 30.9745 10.143 30.9398 10.091 30.8705C10.0477 30.7925 10.026 30.7101 10.026 30.6235C10.026 30.5195 10.052 30.4501 10.104 30.4155C10.156 30.3721 10.2427 30.3331 10.364 30.2985C10.6933 30.2205 11.04 30.1425 11.404 30.0645C11.7767 29.9865 12.0323 29.9345 12.171 29.9085C12.2577 29.6571 12.3227 29.4448 12.366 29.2715C12.4007 29.1588 12.444 29.0201 12.496 28.8555C12.5567 28.6821 12.6217 28.4698 12.691 28.2185L12.886 27.5555C13.2153 26.3941 13.406 25.7311 13.458 25.5665C13.5013 25.4451 13.5403 25.3498 13.575 25.2805C13.6183 25.2111 13.6747 25.1765 13.744 25.1765C13.9173 25.1765 14.0733 25.2025 14.212 25.2545C14.2293 25.2371 14.2553 25.2025 14.29 25.1505C14.3333 25.0898 14.3767 25.0508 14.42 25.0335C14.472 25.0075 14.537 24.9945 14.615 24.9945C14.771 24.9945 14.9487 25.1721 15.148 25.5275C15.356 25.8828 15.5553 26.3031 15.746 26.7885C15.8587 27.0745 16.0017 27.5035 16.175 28.0755C16.3483 28.6388 16.461 29.0115 16.513 29.1935C16.643 29.1761 16.7513 29.1545 16.838 29.1285C16.9333 29.0938 16.994 29.0721 17.02 29.0635C17.0633 29.0461 17.111 29.0158 17.163 28.9725C17.215 28.9291 17.2627 28.8988 17.306 28.8815C17.3493 28.8555 17.397 28.8555 17.449 28.8815C17.5617 28.9335 17.618 29.0418 17.618 29.2065C17.618 29.2671 17.6007 29.3321 17.566 29.4015C17.54 29.4708 17.501 29.5228 17.449 29.5575ZM15.252 27.1005C15.1307 26.7798 14.9747 26.4505 14.784 26.1125C14.5933 25.7745 14.433 25.5621 14.303 25.4755L14.16 25.8135C13.9953 26.1428 13.8697 26.4418 13.783 26.7105C13.575 27.3345 13.2457 28.3658 12.795 29.8045L14.316 29.5445L15.564 29.3495L15.915 29.2975C15.8717 29.1415 15.7807 28.8165 15.642 28.3225C15.5033 27.8198 15.3733 27.4125 15.252 27.1005ZM24.7429 27.0225C24.2922 27.5338 23.8719 28.2661 23.4819 29.2195C23.0919 30.1728 22.7842 31.2041 22.5589 32.3135C22.5329 32.4435 22.4896 32.7035 22.4289 33.0935L22.3639 33.5485C22.3379 33.6871 22.2772 33.7955 22.1819 33.8735C22.0952 33.9515 21.9392 33.9905 21.7139 33.9905C21.6706 33.9905 21.5232 33.7305 21.2719 33.2105C21.0206 32.6818 20.7562 32.1141 20.4789 31.5075L19.9199 30.2855C19.5819 29.5488 19.3002 28.9725 19.0749 28.5565C18.8496 28.1405 18.6849 27.9325 18.5809 27.9325C18.5462 27.9325 18.5159 27.9541 18.4899 27.9975C18.4726 28.0408 18.4509 28.0625 18.4249 28.0625C18.3816 28.0625 18.3426 28.0451 18.3079 28.0105C18.2819 27.9671 18.2689 27.9238 18.2689 27.8805C18.2689 27.7678 18.3296 27.6205 18.4509 27.4385C18.5809 27.2565 18.7066 27.1655 18.8279 27.1655C18.9146 27.1655 18.9796 27.1828 19.0229 27.2175C19.0662 27.2521 19.1052 27.2911 19.1399 27.3345C19.1746 27.3778 19.2006 27.4125 19.2179 27.4385C19.4259 27.6985 19.7856 28.3831 20.2969 29.4925C20.4789 29.8825 20.9296 30.9008 21.6489 32.5475L21.9479 33.2365C21.9479 33.0111 21.9912 32.6471 22.0779 32.1445C22.2686 31.1218 22.5546 30.1078 22.9359 29.1025C23.3172 28.0971 23.7636 27.2565 24.2749 26.5805C24.3789 26.4418 24.4612 26.3465 24.5219 26.2945C24.5912 26.2338 24.6779 26.2035 24.7819 26.2035C24.8252 26.2035 24.8946 26.2728 24.9899 26.4115C25.0852 26.5415 25.1329 26.6281 25.1329 26.6715C25.1329 26.7148 25.0722 26.7755 24.9509 26.8535C24.8382 26.9315 24.7689 26.9878 24.7429 27.0225ZM31.2839 32.7815C31.2839 32.8855 31.2406 33.0068 31.1539 33.1455C31.0673 33.2755 30.9806 33.3405 30.8939 33.3405C30.7466 33.3405 30.6339 33.2495 30.5559 33.0675C30.4779 32.8855 30.4389 32.6731 30.4389 32.4305C30.4389 32.2225 30.4519 31.5985 30.4779 30.5585L30.4909 30.0645C30.4909 29.8651 30.4389 29.7221 30.3349 29.6355C29.9449 30.2941 29.5809 30.8661 29.2429 31.3515C28.9049 31.8368 28.4759 32.2961 27.9559 32.7295C27.4359 33.1541 26.8899 33.3665 26.3179 33.3665C26.0406 33.3665 25.8239 33.2798 25.6679 33.1065C25.5206 32.9331 25.4469 32.7078 25.4469 32.4305C25.4469 32.0838 25.6029 31.6115 25.9149 31.0135C26.2269 30.4068 26.6256 29.7958 27.1109 29.1805C27.5963 28.5565 28.0816 28.0451 28.5669 27.6465C28.8876 27.3865 29.1433 27.2131 29.3339 27.1265C29.5246 27.0311 29.6936 26.9835 29.8409 26.9835C29.9796 26.9835 30.1226 27.0268 30.2699 27.1135C30.4173 27.2001 30.5429 27.3215 30.6469 27.4775C30.7509 27.6335 30.8029 27.8111 30.8029 28.0105C30.8029 28.2791 30.7293 28.5348 30.5819 28.7775L30.8029 28.7125C30.8983 28.7125 30.9546 28.8295 30.9719 29.0635C30.9806 29.2021 30.9893 29.4838 30.9979 29.9085C31.0153 30.3331 31.0283 30.6841 31.0369 30.9615C31.0456 31.2475 31.0543 31.5248 31.0629 31.7935C31.0716 32.0621 31.0803 32.2745 31.0889 32.4305C31.0976 32.4911 31.1323 32.5561 31.1929 32.6255C31.2536 32.6861 31.2839 32.7381 31.2839 32.7815ZM30.1529 29.1285C30.2569 28.8685 30.3089 28.5868 30.3089 28.2835C30.3089 28.1015 30.2526 27.9455 30.1399 27.8155C30.0359 27.6768 29.8929 27.6075 29.7109 27.6075C29.4943 27.6075 29.2169 27.7548 28.8789 28.0495C28.4889 28.3788 28.0773 28.8208 27.6439 29.3755C27.2106 29.9215 26.8509 30.4631 26.5649 31.0005C26.2789 31.5378 26.1359 31.9625 26.1359 32.2745C26.1359 32.5345 26.2573 32.6645 26.4999 32.6645C26.9679 32.6645 27.4186 32.4911 27.8519 32.1445C28.2853 31.7978 28.6709 31.3861 29.0089 30.9095C29.3556 30.4241 29.7369 29.8305 30.1529 29.1285ZM36.6048 33.7305C36.5181 33.7305 36.4445 33.7088 36.3838 33.6655C36.3231 33.6308 36.2928 33.5788 36.2928 33.5095C36.2928 33.1541 36.3188 32.6038 36.3708 31.8585C36.4228 31.0611 36.4488 30.3981 36.4488 29.8695C36.4488 29.3581 36.4315 28.9421 36.3968 28.6215C36.3708 28.2921 36.3015 28.1275 36.1888 28.1275C35.8941 28.1275 35.5691 28.4958 35.2138 29.2325C34.8671 29.9605 34.4685 30.9225 34.0178 32.1185L33.8228 32.6385C33.7881 32.7251 33.7275 32.7945 33.6408 32.8465C33.5628 32.8985 33.4805 32.9245 33.3938 32.9245C33.2898 32.9245 33.2205 32.9158 33.1858 32.8985C33.1511 32.8811 33.1295 32.8291 33.1208 32.7425L33.0168 31.6765L32.8218 29.8045C32.7611 29.0591 32.6875 28.4091 32.6008 27.8545C32.5748 27.7245 32.5618 27.6248 32.5618 27.5555C32.5618 27.4255 32.6181 27.3215 32.7308 27.2435C32.8435 27.1568 32.9735 27.1135 33.1208 27.1135C33.2075 27.1135 33.2681 27.3215 33.3028 27.7375C33.3461 28.1535 33.3895 28.8251 33.4328 29.7525L33.4848 30.4415C33.5541 31.3168 33.5931 31.8715 33.6018 32.1055C33.6278 32.0535 33.6495 31.9971 33.6668 31.9365C33.6928 31.8671 33.7231 31.7935 33.7578 31.7155C34.2258 30.5021 34.6635 29.4925 35.0708 28.6865C35.4868 27.8718 35.8855 27.4645 36.2668 27.4645C36.5355 27.4645 36.7175 27.6941 36.8128 28.1535C36.9168 28.6041 36.9818 29.1848 37.0078 29.8955C37.0338 30.6841 37.0468 31.8368 37.0468 33.3535C37.0468 33.4575 37.0035 33.5441 36.9168 33.6135C36.8301 33.6915 36.7261 33.7305 36.6048 33.7305ZM41.2063 33.4315C40.8076 33.4315 40.4176 33.3881 40.0363 33.3015C39.6636 33.2148 39.3603 33.1021 39.1263 32.9635C38.8923 32.8161 38.7753 32.6645 38.7753 32.5085C38.7753 32.3005 38.8576 32.0578 39.0223 31.7805C39.187 31.4945 39.4513 31.0871 39.8153 30.5585C39.59 30.5585 39.3256 30.5238 39.0223 30.4545C38.8663 30.4111 38.7883 30.3158 38.7883 30.1685C38.7883 30.1078 38.8663 30.0775 39.0223 30.0775L40.2053 30.0645C40.4046 29.6918 40.5823 29.2975 40.7383 28.8815C40.903 28.4568 40.9853 28.1708 40.9853 28.0235C40.9853 27.9541 40.955 27.9195 40.8943 27.9195C40.799 27.9195 40.6516 27.9671 40.4523 28.0625C40.253 28.1578 40.1186 28.2228 40.0493 28.2575C39.5206 28.5088 38.9876 28.6345 38.4503 28.6345C38.3376 28.6345 38.2813 28.5955 38.2813 28.5175C38.2813 28.4568 38.407 28.3875 38.6583 28.3095C39.005 28.1968 39.46 27.9845 40.0233 27.6725C40.6646 27.3171 41.1066 27.1395 41.3493 27.1395C41.488 27.1395 41.5963 27.1698 41.6743 27.2305C41.7523 27.2911 41.7913 27.3691 41.7913 27.4645C41.7913 27.6811 41.4403 28.5348 40.7383 30.0255C40.9376 30.0168 41.2626 29.9561 41.7133 29.8435C41.8606 29.8001 41.956 29.7785 41.9993 29.7785C42.0253 29.7785 42.047 29.7915 42.0643 29.8175C42.0816 29.8435 42.0903 29.8695 42.0903 29.8955C42.0903 30.0341 42.021 30.1338 41.8823 30.1945C41.527 30.3591 41.0286 30.4805 40.3873 30.5585L40.1143 31.0005C39.8716 31.3818 39.6853 31.6938 39.5553 31.9365C39.4253 32.1791 39.3603 32.3568 39.3603 32.4695C39.3603 32.5821 39.5726 32.6731 39.9973 32.7425C40.422 32.8031 40.8423 32.8335 41.2583 32.8335C41.8563 32.8335 42.398 32.7425 42.8833 32.5605C43.3686 32.3785 43.7673 32.1185 44.0793 31.7805C44.1226 31.7025 44.166 31.5421 44.2093 31.2995C44.218 31.2215 44.231 31.1521 44.2483 31.0915C44.2656 31.0221 44.2916 30.9875 44.3263 30.9875C44.3783 30.9875 44.413 31.0525 44.4303 31.1825C44.4563 31.3038 44.4693 31.4598 44.4693 31.6505C44.4693 31.8671 44.3133 32.1185 44.0013 32.4045C43.6893 32.6818 43.2776 32.9245 42.7663 33.1325C42.2636 33.3318 41.7436 33.4315 41.2063 33.4315ZM51.0252 32.7815C51.0252 32.8855 50.9818 33.0068 50.8952 33.1455C50.8085 33.2755 50.7218 33.3405 50.6352 33.3405C50.4878 33.3405 50.3752 33.2495 50.2972 33.0675C50.2192 32.8855 50.1802 32.6731 50.1802 32.4305C50.1802 32.2225 50.1932 31.5985 50.2192 30.5585L50.2322 30.0645C50.2322 29.8651 50.1802 29.7221 50.0762 29.6355C49.6862 30.2941 49.3222 30.8661 48.9842 31.3515C48.6462 31.8368 48.2172 32.2961 47.6972 32.7295C47.1772 33.1541 46.6312 33.3665 46.0592 33.3665C45.7818 33.3665 45.5652 33.2798 45.4092 33.1065C45.2618 32.9331 45.1882 32.7078 45.1882 32.4305C45.1882 32.0838 45.3442 31.6115 45.6562 31.0135C45.9682 30.4068 46.3668 29.7958 46.8522 29.1805C47.3375 28.5565 47.8228 28.0451 48.3082 27.6465C48.6288 27.3865 48.8845 27.2131 49.0752 27.1265C49.2658 27.0311 49.4348 26.9835 49.5822 26.9835C49.7208 26.9835 49.8638 27.0268 50.0112 27.1135C50.1585 27.2001 50.2842 27.3215 50.3882 27.4775C50.4922 27.6335 50.5442 27.8111 50.5442 28.0105C50.5442 28.2791 50.4705 28.5348 50.3232 28.7775L50.5442 28.7125C50.6395 28.7125 50.6958 28.8295 50.7132 29.0635C50.7218 29.2021 50.7305 29.4838 50.7392 29.9085C50.7565 30.3331 50.7695 30.6841 50.7782 30.9615C50.7868 31.2475 50.7955 31.5248 50.8042 31.7935C50.8128 32.0621 50.8215 32.2745 50.8302 32.4305C50.8388 32.4911 50.8735 32.5561 50.9342 32.6255C50.9948 32.6861 51.0252 32.7381 51.0252 32.7815ZM49.8942 29.1285C49.9982 28.8685 50.0502 28.5868 50.0502 28.2835C50.0502 28.1015 49.9938 27.9455 49.8812 27.8155C49.7772 27.6768 49.6342 27.6075 49.4522 27.6075C49.2355 27.6075 48.9582 27.7548 48.6202 28.0495C48.2302 28.3788 47.8185 28.8208 47.3852 29.3755C46.9518 29.9215 46.5922 30.4631 46.3062 31.0005C46.0202 31.5378 45.8772 31.9625 45.8772 32.2745C45.8772 32.5345 45.9985 32.6645 46.2412 32.6645C46.7092 32.6645 47.1598 32.4911 47.5932 32.1445C48.0265 31.7978 48.4122 31.3861 48.7502 30.9095C49.0968 30.4241 49.4782 29.8305 49.8942 29.1285ZM56.346 28.2055C56.2853 28.2055 56.2247 28.1795 56.164 28.1275C56.112 28.0755 56.0513 28.0018 55.982 27.9065C55.9213 27.8198 55.839 27.7461 55.735 27.6855C55.6397 27.6248 55.54 27.5945 55.436 27.5945C55.1847 27.5945 54.8467 27.9281 54.422 28.5955C53.9973 29.2541 53.5813 30.0861 53.174 31.0915C53.1827 31.2908 53.1957 31.5421 53.213 31.8455C53.239 32.1488 53.2563 32.3741 53.265 32.5215L53.304 33.0415C53.304 33.1628 53.278 33.2668 53.226 33.3535C53.174 33.4488 53.0787 33.4965 52.94 33.4965C52.7927 33.4965 52.6973 33.3015 52.654 32.9115C52.6107 32.5128 52.5847 31.9365 52.576 31.1825C52.5673 30.9918 52.5587 30.7188 52.55 30.3635C52.55 30.0081 52.5413 29.5835 52.524 29.0895C52.498 28.3441 52.485 27.8111 52.485 27.4905C52.485 27.2911 52.6063 27.1915 52.849 27.1915C52.9963 27.1915 53.083 27.2565 53.109 27.3865C53.1437 27.5078 53.161 27.7461 53.161 28.1015V30.1685C53.421 29.5011 53.7027 28.9248 54.006 28.4395C54.3093 27.9541 54.604 27.5858 54.89 27.3345C55.1847 27.0745 55.4447 26.9445 55.67 26.9445C55.8607 26.9445 56.0427 26.9878 56.216 27.0745C56.3893 27.1611 56.528 27.2738 56.632 27.4125C56.736 27.5425 56.788 27.6681 56.788 27.7895C56.788 27.8675 56.7317 27.9585 56.619 28.0625C56.515 28.1578 56.424 28.2055 56.346 28.2055Z" fill="white"/>
</svg>
