<svg width="378" height="121" viewBox="0 0 378 121" fill="none" xmlns="http://www.w3.org/2000/svg">
<rect width="378" height="30" fill="#40273A"/>
<path d="M154.42 8.26C153.407 8.59333 152.62 9.14667 152.06 9.92C151.513 10.68 151.24 11.6267 151.24 12.76C151.24 13.2667 151.287 13.6133 151.38 13.8C151.473 13.9867 151.52 14.1 151.52 14.14C150.093 14.14 149.38 13.5333 149.38 12.32C149.38 11.4933 149.693 10.6667 150.32 9.84C150.96 9 151.773 8.32 152.76 7.8C153.76 7.26667 154.753 7 155.74 7C156.233 7 156.74 7.09333 157.26 7.28L156.8 17.82L161.2 7.28H164.08L161.98 22H159.1L160.38 13.02L156.62 22H153.88L154.28 12.98L150.94 22H149.34L154.42 8.26ZM170.022 7H172.122L169.702 10.78H168.202L170.022 7ZM166.602 22.12C165.616 22.12 164.849 21.8667 164.302 21.36C163.756 20.84 163.482 20.0333 163.482 18.94C163.482 18.02 163.662 17.0067 164.022 15.9C164.382 14.7933 164.969 13.84 165.782 13.04C166.596 12.2267 167.629 11.82 168.882 11.82C170.349 11.82 171.082 12.46 171.082 13.74C171.082 14.4867 170.869 15.1733 170.442 15.8C170.016 16.4267 169.449 16.9333 168.742 17.32C168.036 17.6933 167.282 17.9067 166.482 17.96C166.456 18.36 166.442 18.6267 166.442 18.76C166.442 19.4133 166.556 19.86 166.782 20.1C167.009 20.3267 167.376 20.44 167.882 20.44C168.602 20.44 169.216 20.2733 169.722 19.94C170.242 19.6067 170.809 19.1 171.422 18.42H172.102C170.622 20.8867 168.789 22.12 166.602 22.12ZM166.642 17C167.136 16.9733 167.602 16.8 168.042 16.48C168.496 16.16 168.856 15.7533 169.122 15.26C169.402 14.7667 169.542 14.2467 169.542 13.7C169.542 13.1533 169.376 12.88 169.042 12.88C168.562 12.88 168.089 13.3 167.622 14.14C167.169 14.98 166.842 15.9333 166.642 17ZM173.398 22.12C172.758 22.12 172.238 21.92 171.838 21.52C171.451 21.12 171.258 20.52 171.258 19.72C171.258 19.3867 171.311 18.9533 171.418 18.42L172.618 12.8H171.958L172.118 12H172.778L173.378 9.24L176.338 8.84L175.658 12H176.858L176.698 12.8H175.498L174.218 18.8C174.165 19 174.138 19.2133 174.138 19.44C174.138 19.7067 174.198 19.9 174.318 20.02C174.451 20.1267 174.665 20.18 174.958 20.18C175.345 20.18 175.705 20.02 176.038 19.7C176.371 19.3667 176.611 18.94 176.758 18.42H177.598C177.105 19.86 176.471 20.84 175.698 21.36C174.925 21.8667 174.158 22.12 173.398 22.12ZM179.67 22.08C178.683 22.08 177.903 21.8267 177.33 21.32C176.757 20.8133 176.47 20.0133 176.47 18.92C176.47 18.0133 176.657 17.0067 177.03 15.9C177.403 14.7933 178.003 13.84 178.83 13.04C179.657 12.2267 180.697 11.82 181.95 11.82C183.657 11.82 184.51 12.8867 184.51 15.02V15.04C184.55 15.0533 184.623 15.06 184.73 15.06C185.17 15.06 185.677 14.9467 186.25 14.72C186.823 14.48 187.343 14.1933 187.81 13.86L187.99 14.4C187.603 14.8133 187.097 15.1667 186.47 15.46C185.857 15.74 185.183 15.94 184.45 16.06C184.343 17.2733 184.07 18.3333 183.63 19.24C183.19 20.1467 182.623 20.8467 181.93 21.34C181.237 21.8333 180.483 22.08 179.67 22.08ZM180.47 20.28C180.79 20.28 181.11 20.1 181.43 19.74C181.75 19.3667 182.03 18.8667 182.27 18.24C182.51 17.6 182.683 16.8933 182.79 16.12C182.43 16.04 182.25 15.76 182.25 15.28C182.25 14.7333 182.457 14.3733 182.87 14.2C182.843 13.76 182.777 13.46 182.67 13.3C182.563 13.1267 182.377 13.04 182.11 13.04C181.67 13.04 181.243 13.36 180.83 14C180.417 14.64 180.083 15.4067 179.83 16.3C179.577 17.1933 179.45 17.98 179.45 18.66C179.45 19.3 179.523 19.7333 179.67 19.96C179.817 20.1733 180.083 20.28 180.47 20.28ZM187.939 22.12C187.179 22.12 186.546 21.86 186.039 21.34C185.532 20.82 185.279 20.0067 185.279 18.9C185.279 17.9133 185.472 16.88 185.859 15.8C186.259 14.7067 186.846 13.7867 187.619 13.04C188.406 12.28 189.339 11.9 190.419 11.9C190.966 11.9 191.372 11.9933 191.639 12.18C191.906 12.3667 192.039 12.6133 192.039 12.92V13L193.019 8.4L195.979 8L193.679 18.8C193.626 19 193.599 19.2133 193.599 19.44C193.599 19.7067 193.659 19.9 193.779 20.02C193.912 20.1267 194.126 20.18 194.419 20.18C194.792 20.18 195.112 20.02 195.379 19.7C195.659 19.38 195.879 18.9533 196.039 18.42H196.879C196.066 20.8067 194.726 22 192.859 22C192.312 22 191.866 21.8533 191.519 21.56C191.186 21.2667 190.979 20.84 190.899 20.28C190.552 20.8133 190.132 21.2533 189.639 21.6C189.159 21.9467 188.592 22.12 187.939 22.12ZM189.239 20.18C189.559 20.18 189.879 20.0333 190.199 19.74C190.532 19.4467 190.759 19.04 190.879 18.52V18.42L191.859 13.84C191.739 13.3733 191.466 13.14 191.039 13.14C190.506 13.14 190.026 13.4533 189.599 14.08C189.172 14.6933 188.839 15.44 188.599 16.32C188.359 17.1867 188.239 17.9533 188.239 18.62C188.239 19.2867 188.332 19.7133 188.519 19.9C188.719 20.0867 188.959 20.18 189.239 20.18ZM206.887 22.12C205.82 22.12 205.087 21.8667 204.687 21.36C204.3 20.8533 204.107 20.22 204.107 19.46C204.107 18.9 204.254 18.4467 204.547 18.1C204.84 17.74 205.174 17.56 205.547 17.56C206.24 17.56 206.587 17.84 206.587 18.4C206.587 18.64 206.494 18.8533 206.307 19.04C206.12 19.2133 205.894 19.3 205.627 19.3C205.347 19.3 205.167 19.2133 205.087 19.04C205.087 19.52 205.18 19.8933 205.367 20.16C205.567 20.4133 205.86 20.54 206.247 20.54C206.7 20.54 207.02 20.4067 207.207 20.14C207.407 19.86 207.507 19.3733 207.507 18.68C207.507 18.28 207.467 17.7733 207.387 17.16C207.254 15.88 207.147 14.5733 207.067 13.24C206.12 14.6933 205 15.6133 203.707 16C203.627 17.2267 203.367 18.3 202.927 19.22C202.487 20.14 201.92 20.8467 201.227 21.34C200.547 21.8333 199.794 22.08 198.967 22.08C197.98 22.08 197.2 21.8267 196.627 21.32C196.054 20.8133 195.767 20.0133 195.767 18.92C195.767 18 195.947 16.9933 196.307 15.9C196.667 14.7933 197.254 13.84 198.067 13.04C198.88 12.2267 199.92 11.82 201.187 11.82C202.88 11.82 203.734 12.8667 203.747 14.96C204.734 14.9067 205.82 13.8467 207.007 11.78L209.967 11.38C210.034 13.0867 210.147 14.9333 210.307 16.92C210.374 17.72 210.407 18.3 210.407 18.66C210.407 19.86 210.06 20.74 209.367 21.3C208.674 21.8467 207.847 22.12 206.887 22.12ZM199.767 20.28C200.26 20.28 200.72 19.8867 201.147 19.1C201.574 18.3 201.867 17.3133 202.027 16.14C201.707 16.02 201.547 15.72 201.547 15.24C201.547 14.72 201.734 14.3733 202.107 14.2C202.08 13.7733 202.007 13.4733 201.887 13.3C201.78 13.1267 201.6 13.04 201.347 13.04C200.907 13.04 200.487 13.36 200.087 14C199.687 14.6267 199.36 15.3933 199.107 16.3C198.867 17.1933 198.747 17.98 198.747 18.66C198.747 19.3 198.82 19.7333 198.967 19.96C199.114 20.1733 199.38 20.28 199.767 20.28Z" fill="white"/>
<rect y="30" width="378" height="91" fill="#A143C9" fill-opacity="0.27"/>
</svg>
