<svg width="62" height="63" viewBox="0 0 62 63" fill="none" xmlns="http://www.w3.org/2000/svg">
<circle cx="31" cy="31.2625" r="31" fill="#6F497D" fill-opacity="0.87"/>
<path d="M11.241 32.4035C10.877 32.8975 10.3873 33.3785 9.772 33.8465C9.15667 34.3058 8.48067 34.5355 7.744 34.5355C6.964 34.5355 6.327 34.3145 5.833 33.8725C5.339 33.4218 5.092 32.7588 5.092 31.8835C5.092 31.2855 5.196 30.6095 5.404 29.8555C5.612 29.1015 5.85467 28.4471 6.132 27.8925C6.418 27.3291 6.74733 26.8611 7.12 26.4885C7.50133 26.1158 7.88267 25.9295 8.264 25.9295C8.63667 25.9295 8.92267 26.0638 9.122 26.3325C9.33 26.6011 9.434 26.9348 9.434 27.3335C9.434 27.4808 9.40367 27.6325 9.343 27.7885C9.291 27.9358 9.23033 28.0615 9.161 28.1655C9.09167 28.2695 9.03967 28.3215 9.005 28.3215C8.93567 28.3215 8.901 28.2825 8.901 28.2045C8.901 28.1785 8.914 28.1221 8.94 28.0355C8.97467 27.9401 8.992 27.8621 8.992 27.8015C8.992 27.5848 8.966 27.3811 8.914 27.1905C8.87067 27.0258 8.784 26.8915 8.654 26.7875C8.524 26.6748 8.381 26.6185 8.225 26.6185C7.601 26.6185 7.016 27.2208 6.47 28.4255C6.25333 28.9108 6.07133 29.4568 5.924 30.0635C5.77667 30.6701 5.703 31.2551 5.703 31.8185C5.703 32.2085 5.781 32.5638 5.937 32.8845C6.10167 33.2051 6.33133 33.4608 6.626 33.6515C6.92933 33.8421 7.28033 33.9375 7.679 33.9375C8.31167 33.9375 8.88367 33.7858 9.395 33.4825C9.915 33.1791 10.4263 32.7891 10.929 32.3125C10.9463 32.2951 11.007 32.1998 11.111 32.0265C11.215 31.8445 11.293 31.7535 11.345 31.7535C11.397 31.7535 11.4317 31.7665 11.449 31.7925C11.4663 31.8185 11.475 31.8661 11.475 31.9355C11.475 32.0221 11.397 32.1781 11.241 32.4035ZM13.2801 34.3535C12.6994 34.3535 12.2704 34.1931 11.9931 33.8725C11.7157 33.5518 11.5771 33.1531 11.5771 32.6765C11.5771 32.2605 11.6507 31.7448 11.7981 31.1295C11.9541 30.5141 12.1707 29.9638 12.4481 29.4785C12.4654 29.4438 12.5347 29.3181 12.6561 29.1015C12.7861 28.8761 12.9291 28.7071 13.0851 28.5945C13.2411 28.4731 13.4057 28.4125 13.5791 28.4125C13.6571 28.4125 13.7264 28.4341 13.7871 28.4775C13.8564 28.5121 13.8911 28.5598 13.8911 28.6205C13.8911 28.6378 13.8651 28.6811 13.8131 28.7505C13.7697 28.8111 13.7351 28.8588 13.7091 28.8935C13.4144 29.2488 13.1761 29.5998 12.9941 29.9465C12.7514 30.3885 12.5607 30.8261 12.4221 31.2595C12.2921 31.6928 12.2271 32.1651 12.2271 32.6765C12.2271 33.3611 12.6431 33.7035 13.4751 33.7035C13.8651 33.7035 14.2247 33.5908 14.5541 33.3655C14.8921 33.1401 15.1607 32.8671 15.3601 32.5465C15.5594 32.2171 15.6591 31.9181 15.6591 31.6495C15.6591 31.3461 15.5594 31.0818 15.3601 30.8565C15.1607 30.6311 14.8877 30.3928 14.5411 30.1415C14.3157 29.9768 14.1511 29.8425 14.0471 29.7385C13.9431 29.6345 13.8911 29.5478 13.8911 29.4785C13.8911 29.3745 13.9647 29.2921 14.1121 29.2315C14.2594 29.1621 14.4327 29.1275 14.6321 29.1275C14.7447 29.1275 14.8184 29.1361 14.8531 29.1535C14.8877 29.1621 14.9051 29.1838 14.9051 29.2185C14.9051 29.2358 14.8877 29.2661 14.8531 29.3095C14.8271 29.3441 14.8141 29.3745 14.8141 29.4005C14.8141 29.4265 14.9007 29.5131 15.0741 29.6605C15.4207 29.9465 15.7111 30.2368 15.9451 30.5315C16.1791 30.8261 16.2961 31.1728 16.2961 31.5715C16.2961 31.9095 16.1704 32.2995 15.9191 32.7415C15.6677 33.1835 15.3124 33.5648 14.8531 33.8855C14.3937 34.1975 13.8694 34.3535 13.2801 34.3535ZM25.1716 34.5095C25.0156 34.5095 24.9376 34.4315 24.9376 34.2755C24.9376 32.5248 24.8813 31.1858 24.7686 30.2585C24.656 29.3225 24.461 28.8545 24.1836 28.8545C23.7156 28.8545 23.031 30.4881 22.1296 33.7555V33.7685C22.1296 33.8725 22.095 33.9635 22.0256 34.0415C21.9563 34.1108 21.8653 34.1455 21.7526 34.1455C21.5966 34.1455 21.5186 34.0675 21.5186 33.9115C21.5186 33.5648 21.536 33.0275 21.5706 32.2995C21.6053 31.4848 21.6226 30.8435 21.6226 30.3755C21.6226 29.7255 21.601 29.2661 21.5576 28.9975C21.523 28.7201 21.4406 28.5815 21.3106 28.5815C21.016 28.5815 20.6433 29.1231 20.1926 30.2065C19.742 31.2811 19.2696 32.5508 18.7756 34.0155L18.6586 34.3535C18.624 34.4401 18.572 34.5138 18.5026 34.5745C18.442 34.6351 18.3726 34.6655 18.2946 34.6655C18.1906 34.6655 18.1213 34.6568 18.0866 34.6395C18.052 34.6221 18.0303 34.5701 18.0216 34.4835C17.9783 34.0588 17.9436 33.4911 17.9176 32.7805C17.9003 32.5985 17.883 32.2995 17.8656 31.8835C17.779 30.4188 17.701 29.4308 17.6316 28.9195C17.5623 28.3995 17.5276 28.1091 17.5276 28.0485C17.5276 27.9791 17.5623 27.8968 17.6316 27.8015C17.701 27.7061 17.766 27.6585 17.8266 27.6585C17.9653 27.6585 18.078 27.7581 18.1646 27.9575C18.208 28.0528 18.2556 28.4341 18.3076 29.1015C18.3596 29.7688 18.403 30.5965 18.4376 31.5845L18.5026 33.5735C18.9793 32.1001 19.4733 30.7655 19.9846 29.5695C20.496 28.3648 20.964 27.7625 21.3886 27.7625C21.6746 27.7625 21.8696 27.9705 21.9736 28.3865C22.0776 28.8025 22.1296 29.4048 22.1296 30.1935C22.1296 30.6095 22.121 31.2075 22.1036 31.9875L22.0906 32.5855C22.446 31.3461 22.797 30.3061 23.1436 29.4655C23.499 28.6248 23.8543 28.2045 24.2096 28.2045C25.1023 28.2045 25.5486 30.1805 25.5486 34.1325C25.5486 34.2365 25.514 34.3231 25.4446 34.3925C25.3753 34.4705 25.2843 34.5095 25.1716 34.5095ZM32.0879 31.1425C32.0879 31.2985 31.9709 31.6408 31.7369 32.1695C31.5116 32.6981 31.1649 33.1878 30.6969 33.6385C30.2376 34.0891 29.6699 34.3145 28.9939 34.3145C28.4393 34.3145 27.9756 34.1411 27.6029 33.7945C27.2303 33.4478 27.0439 32.9148 27.0439 32.1955C27.0439 31.5195 27.1999 30.8521 27.5119 30.1935C27.8239 29.5261 28.2313 28.9845 28.7339 28.5685C29.2366 28.1438 29.7566 27.9315 30.2939 27.9315C30.6146 27.9315 30.8833 28.0051 31.0999 28.1525C31.3253 28.2911 31.4379 28.4948 31.4379 28.7635C31.4379 29.0668 31.2646 29.3615 30.9179 29.6475C30.5799 29.9335 30.1379 30.1848 29.5919 30.4015C29.0459 30.6181 28.4826 30.7741 27.9019 30.8695C27.7979 31.2681 27.7459 31.6581 27.7459 32.0395C27.7459 32.5421 27.8629 32.9321 28.0969 33.2095C28.3396 33.4868 28.6819 33.6255 29.1239 33.6255C29.7913 33.6255 30.3329 33.3871 30.7489 32.9105C31.1649 32.4338 31.5116 31.8965 31.7889 31.2985C31.8063 31.2638 31.8366 31.1988 31.8799 31.1035C31.9233 30.9995 31.9623 30.9475 31.9969 30.9475C32.0576 30.9475 32.0879 31.0125 32.0879 31.1425ZM30.1379 28.4645C29.8086 28.4645 29.4923 28.5728 29.1889 28.7895C28.8856 29.0061 28.6299 29.2661 28.4219 29.5695C28.2226 29.8728 28.0926 30.1415 28.0319 30.3755C28.4306 30.3321 28.8509 30.2195 29.2929 30.0375C29.7349 29.8555 30.1033 29.6561 30.3979 29.4395C30.7013 29.2228 30.8529 29.0451 30.8529 28.9065C30.8529 28.7678 30.7793 28.6595 30.6319 28.5815C30.4933 28.5035 30.3286 28.4645 30.1379 28.4645ZM37.1302 34.7305C37.0435 34.7305 36.9699 34.7088 36.9092 34.6655C36.8485 34.6308 36.8182 34.5788 36.8182 34.5095C36.8182 34.1541 36.8442 33.6038 36.8962 32.8585C36.9482 32.0611 36.9742 31.3981 36.9742 30.8695C36.9742 30.3581 36.9569 29.9421 36.9222 29.6215C36.8962 29.2921 36.8269 29.1275 36.7142 29.1275C36.4195 29.1275 36.0945 29.4958 35.7392 30.2325C35.3925 30.9605 34.9939 31.9225 34.5432 33.1185L34.3482 33.6385C34.3135 33.7251 34.2529 33.7945 34.1662 33.8465C34.0882 33.8985 34.0059 33.9245 33.9192 33.9245C33.8152 33.9245 33.7459 33.9158 33.7112 33.8985C33.6765 33.8811 33.6549 33.8291 33.6462 33.7425L33.5422 32.6765L33.3472 30.8045C33.2865 30.0591 33.2129 29.4091 33.1262 28.8545C33.1002 28.7245 33.0872 28.6248 33.0872 28.5555C33.0872 28.4255 33.1435 28.3215 33.2562 28.2435C33.3689 28.1568 33.4989 28.1135 33.6462 28.1135C33.7329 28.1135 33.7935 28.3215 33.8282 28.7375C33.8715 29.1535 33.9149 29.8251 33.9582 30.7525L34.0102 31.4415C34.0795 32.3168 34.1185 32.8715 34.1272 33.1055C34.1532 33.0535 34.1749 32.9971 34.1922 32.9365C34.2182 32.8671 34.2485 32.7935 34.2832 32.7155C34.7512 31.5021 35.1889 30.4925 35.5962 29.6865C36.0122 28.8718 36.4109 28.4645 36.7922 28.4645C37.0609 28.4645 37.2429 28.6941 37.3382 29.1535C37.4422 29.6041 37.5072 30.1848 37.5332 30.8955C37.5592 31.6841 37.5722 32.8368 37.5722 34.3535C37.5722 34.4575 37.5289 34.5441 37.4422 34.6135C37.3555 34.6915 37.2515 34.7305 37.1302 34.7305ZM41.7317 34.4315C41.333 34.4315 40.943 34.3881 40.5617 34.3015C40.189 34.2148 39.8857 34.1021 39.6517 33.9635C39.4177 33.8161 39.3007 33.6645 39.3007 33.5085C39.3007 33.3005 39.383 33.0578 39.5477 32.7805C39.7124 32.4945 39.9767 32.0871 40.3407 31.5585C40.1154 31.5585 39.851 31.5238 39.5477 31.4545C39.3917 31.4111 39.3137 31.3158 39.3137 31.1685C39.3137 31.1078 39.3917 31.0775 39.5477 31.0775L40.7307 31.0645C40.93 30.6918 41.1077 30.2975 41.2637 29.8815C41.4284 29.4568 41.5107 29.1708 41.5107 29.0235C41.5107 28.9541 41.4804 28.9195 41.4197 28.9195C41.3244 28.9195 41.177 28.9671 40.9777 29.0625C40.7784 29.1578 40.644 29.2228 40.5747 29.2575C40.046 29.5088 39.513 29.6345 38.9757 29.6345C38.863 29.6345 38.8067 29.5955 38.8067 29.5175C38.8067 29.4568 38.9324 29.3875 39.1837 29.3095C39.5304 29.1968 39.9854 28.9845 40.5487 28.6725C41.19 28.3171 41.632 28.1395 41.8747 28.1395C42.0134 28.1395 42.1217 28.1698 42.1997 28.2305C42.2777 28.2911 42.3167 28.3691 42.3167 28.4645C42.3167 28.6811 41.9657 29.5348 41.2637 31.0255C41.463 31.0168 41.788 30.9561 42.2387 30.8435C42.386 30.8001 42.4814 30.7785 42.5247 30.7785C42.5507 30.7785 42.5724 30.7915 42.5897 30.8175C42.607 30.8435 42.6157 30.8695 42.6157 30.8955C42.6157 31.0341 42.5464 31.1338 42.4077 31.1945C42.0524 31.3591 41.554 31.4805 40.9127 31.5585L40.6397 32.0005C40.397 32.3818 40.2107 32.6938 40.0807 32.9365C39.9507 33.1791 39.8857 33.3568 39.8857 33.4695C39.8857 33.5821 40.098 33.6731 40.5227 33.7425C40.9474 33.8031 41.3677 33.8335 41.7837 33.8335C42.3817 33.8335 42.9234 33.7425 43.4087 33.5605C43.894 33.3785 44.2927 33.1185 44.6047 32.7805C44.648 32.7025 44.6914 32.5421 44.7347 32.2995C44.7434 32.2215 44.7564 32.1521 44.7737 32.0915C44.791 32.0221 44.817 31.9875 44.8517 31.9875C44.9037 31.9875 44.9384 32.0525 44.9557 32.1825C44.9817 32.3038 44.9947 32.4598 44.9947 32.6505C44.9947 32.8671 44.8387 33.1185 44.5267 33.4045C44.2147 33.6818 43.803 33.9245 43.2917 34.1325C42.789 34.3318 42.269 34.4315 41.7317 34.4315ZM51.5505 33.7815C51.5505 33.8855 51.5072 34.0068 51.4205 34.1455C51.3339 34.2755 51.2472 34.3405 51.1605 34.3405C51.0132 34.3405 50.9005 34.2495 50.8225 34.0675C50.7445 33.8855 50.7055 33.6731 50.7055 33.4305C50.7055 33.2225 50.7185 32.5985 50.7445 31.5585L50.7575 31.0645C50.7575 30.8651 50.7055 30.7221 50.6015 30.6355C50.2115 31.2941 49.8475 31.8661 49.5095 32.3515C49.1715 32.8368 48.7425 33.2961 48.2225 33.7295C47.7025 34.1541 47.1565 34.3665 46.5845 34.3665C46.3072 34.3665 46.0905 34.2798 45.9345 34.1065C45.7872 33.9331 45.7135 33.7078 45.7135 33.4305C45.7135 33.0838 45.8695 32.6115 46.1815 32.0135C46.4935 31.4068 46.8922 30.7958 47.3775 30.1805C47.8629 29.5565 48.3482 29.0451 48.8335 28.6465C49.1542 28.3865 49.4099 28.2131 49.6005 28.1265C49.7912 28.0311 49.9602 27.9835 50.1075 27.9835C50.2462 27.9835 50.3892 28.0268 50.5365 28.1135C50.6839 28.2001 50.8095 28.3215 50.9135 28.4775C51.0175 28.6335 51.0695 28.8111 51.0695 29.0105C51.0695 29.2791 50.9959 29.5348 50.8485 29.7775L51.0695 29.7125C51.1649 29.7125 51.2212 29.8295 51.2385 30.0635C51.2472 30.2021 51.2559 30.4838 51.2645 30.9085C51.2819 31.3331 51.2949 31.6841 51.3035 31.9615C51.3122 32.2475 51.3209 32.5248 51.3295 32.7935C51.3382 33.0621 51.3469 33.2745 51.3555 33.4305C51.3642 33.4911 51.3989 33.5561 51.4595 33.6255C51.5202 33.6861 51.5505 33.7381 51.5505 33.7815ZM50.4195 30.1285C50.5235 29.8685 50.5755 29.5868 50.5755 29.2835C50.5755 29.1015 50.5192 28.9455 50.4065 28.8155C50.3025 28.6768 50.1595 28.6075 49.9775 28.6075C49.7609 28.6075 49.4835 28.7548 49.1455 29.0495C48.7555 29.3788 48.3439 29.8208 47.9105 30.3755C47.4772 30.9215 47.1175 31.4631 46.8315 32.0005C46.5455 32.5378 46.4025 32.9625 46.4025 33.2745C46.4025 33.5345 46.5239 33.6645 46.7665 33.6645C47.2345 33.6645 47.6852 33.4911 48.1185 33.1445C48.5519 32.7978 48.9375 32.3861 49.2755 31.9095C49.6222 31.4241 50.0035 30.8305 50.4195 30.1285ZM56.8714 29.2055C56.8107 29.2055 56.7501 29.1795 56.6894 29.1275C56.6374 29.0755 56.5767 29.0018 56.5074 28.9065C56.4467 28.8198 56.3644 28.7461 56.2604 28.6855C56.1651 28.6248 56.0654 28.5945 55.9614 28.5945C55.7101 28.5945 55.3721 28.9281 54.9474 29.5955C54.5227 30.2541 54.1067 31.0861 53.6994 32.0915C53.7081 32.2908 53.7211 32.5421 53.7384 32.8455C53.7644 33.1488 53.7817 33.3741 53.7904 33.5215L53.8294 34.0415C53.8294 34.1628 53.8034 34.2668 53.7514 34.3535C53.6994 34.4488 53.6041 34.4965 53.4654 34.4965C53.3181 34.4965 53.2227 34.3015 53.1794 33.9115C53.1361 33.5128 53.1101 32.9365 53.1014 32.1825C53.0927 31.9918 53.0841 31.7188 53.0754 31.3635C53.0754 31.0081 53.0667 30.5835 53.0494 30.0895C53.0234 29.3441 53.0104 28.8111 53.0104 28.4905C53.0104 28.2911 53.1317 28.1915 53.3744 28.1915C53.5217 28.1915 53.6084 28.2565 53.6344 28.3865C53.6691 28.5078 53.6864 28.7461 53.6864 29.1015V31.1685C53.9464 30.5011 54.2281 29.9248 54.5314 29.4395C54.8347 28.9541 55.1294 28.5858 55.4154 28.3345C55.7101 28.0745 55.9701 27.9445 56.1954 27.9445C56.3861 27.9445 56.5681 27.9878 56.7414 28.0745C56.9147 28.1611 57.0534 28.2738 57.1574 28.4125C57.2614 28.5425 57.3134 28.6681 57.3134 28.7895C57.3134 28.8675 57.2571 28.9585 57.1444 29.0625C57.0404 29.1578 56.9494 29.2055 56.8714 29.2055Z" fill="white"/>
</svg>
